<svg xmlns="http://www.w3.org/2000/svg" width="154.002" height="71.654" viewBox="0 0 154.002 71.654">
  <g id="Group_3434" data-name="Group 3434" transform="translate(19288 16075)">
    <g id="Group_3029" data-name="Group 3029" transform="translate(-19288 -16075)">
      <g id="Group_3028" data-name="Group 3028" transform="translate(101.077 18.478)">
        <path id="Path_33258" data-name="Path 33258" d="M240.575,134.972c3.635,0,7.27.046,10.9-.027,1.2-.023,1.517.216,1.4,1.512-.783,8.826-4.911,15.552-12.482,20.118a22.862,22.862,0,0,1-11.192,3.2c-.848.029-1.147-.184-1.144-1.092q.054-11.279,0-22.56c0-.969.322-1.183,1.23-1.172C233.053,135,236.814,134.972,240.575,134.972Z" transform="translate(-199.981 -106.605)" fill="#e37642"/>
        <path id="Path_33259" data-name="Path 33259" d="M228.094,121.929c0-3.635.046-7.271-.027-10.9-.023-1.2.217-1.518,1.512-1.4,8.826.783,15.552,4.911,20.118,12.481a22.871,22.871,0,0,1,3.2,11.194c.03.848-.184,1.147-1.091,1.143q-11.281-.052-22.562,0c-.969,0-1.183-.323-1.172-1.23C228.121,129.449,228.094,125.689,228.094,121.929Z" transform="translate(-199.98 -109.599)" fill="#679e3c"/>
        <path id="Path_33260" data-name="Path 33260" d="M227.755,147.453c0,3.634-.046,7.27.027,10.9.023,1.2-.217,1.517-1.512,1.4-8.827-.783-15.552-4.91-20.118-12.48a22.866,22.866,0,0,1-3.2-11.192c-.03-.849.184-1.148,1.091-1.144q11.281.054,22.562,0c.969,0,1.183.322,1.172,1.23C227.728,139.931,227.755,143.692,227.755,147.453Z" transform="translate(-202.948 -106.606)" fill="#f4da5f"/>
      </g>
      <path id="Path_33261" data-name="Path 33261" d="M120.534,123.954q0,3.126,0,6.254c0,.41-.086.846.585.831,2.746-.063,5.509.206,8.231-.319a5.059,5.059,0,0,0,4.442-4.287,12.493,12.493,0,0,0-.042-4.717,5.263,5.263,0,0,0-4.077-4.242c-2.824-.788-5.712-.4-8.575-.5-.68-.023-.561.455-.561.852C120.53,119.869,120.534,121.912,120.534,123.954Zm-7.953-9.211c0-6.81.029-13.621-.031-20.43-.009-1.083.3-1.28,1.3-1.233,1.918.091,3.844.072,5.764.006.848-.028,1.026.257,1.022,1.053-.034,5.389.012,10.78-.045,16.169-.01,1.019.3,1.205,1.249,1.213,3.171.026,6.339-.141,9.513.181,7.2.731,11.783,6.588,10.925,13.745-.784,6.539-5.4,10.211-11.668,10.813-5.742.551-11.52.108-17.281.231-.92.02-.744-.55-.745-1.067Q112.578,125.084,112.58,114.743Z" transform="translate(-112.549 -93.073)" fill="#333"/>
      <path id="Path_33262" data-name="Path 33262" d="M155.785,134.976a18.767,18.767,0,0,1-9.241-2.112,11.413,11.413,0,0,1-6.36-9.681c-.349-4.953,1.375-9.071,5.78-11.5a20.164,20.164,0,0,1,19.537-.314c4.8,2.386,6.7,6.656,6.3,11.932-.375,4.888-3.049,8.151-7.429,10.119A20.217,20.217,0,0,1,155.785,134.976Zm7.721-12.82c.018-4.62-2.758-7.457-7.332-7.49-4.793-.035-7.661,2.729-7.675,7.394s2.8,7.5,7.44,7.528S163.486,126.748,163.505,122.156Z" transform="translate(-109.29 -91.192)" fill="#333"/>
      <path id="Path_33263" data-name="Path 33263" d="M170.011,131.1c0-6.769.02-13.537-.023-20.306-.007-.994.17-1.357,1.267-1.341,5.471.083,10.948-.051,16.415.132,6,.2,10.632,3.884,11.815,9.2,1.838,8.263-3.132,14.7-10.754,15.4-3.174.292-6.342.143-9.512.163-.936.007-1.178.23-1.171,1.174.049,5.389,0,10.78.047,16.169.008.946-.248,1.22-1.191,1.182-1.877-.075-3.762-.089-5.639,0-1.094.054-1.284-.349-1.277-1.346C170.032,144.718,170.011,137.906,170.011,131.1ZM178,121.8c0,2.089.015,4.177-.01,6.266-.006.557.1.829.746.814,2-.044,4.015.064,6.013-.056,4.4-.263,6.378-2.045,6.677-6.346.3-4.238-.933-7.02-5.8-7.49-2.213-.214-4.423-.019-6.63-.143-.871-.049-1.036.282-1.017,1.067C178.034,117.875,178,119.839,178,121.8Z" transform="translate(-105.764 -91.139)" fill="#333"/>
      <path id="Path_33264" data-name="Path 33264" d="M216.207,134.546c-3.255-.123-7.266.2-11.268-.168-5.42-.5-8.248-4.718-6.662-9.936a6.014,6.014,0,0,1,3.585-3.913,15.776,15.776,0,0,1,6.1-1.172q5.577-.087,11.153-.01c.968.015,1.112-.344,1.011-1.156a3.114,3.114,0,0,0-2.174-2.787,11.547,11.547,0,0,0-3.814-.586c-4.386,0-8.773-.022-13.159.019-.85.008-1.215-.181-1.117-1.09.146-1.357-.586-3.18.293-3.956.763-.673,2.54-.219,3.87-.223,4.345-.012,8.69-.03,13.034.006a16.25,16.25,0,0,1,6.219,1.191,7.681,7.681,0,0,1,5.076,7.353c.12,5.177.018,10.359.066,15.54.008.884-.4.9-1.059.9C223.893,134.536,220.425,134.546,216.207,134.546Zm-2.1-5.183v.01c1.75,0,3.5-.028,5.248.015.664.016.865-.2.841-.851-.046-1.165-.022-2.334-.008-3.5.006-.43-.057-.714-.6-.7-3.66.121-7.333-.258-10.981.23-1.773.237-2.583,1.174-2.48,2.681.094,1.366.943,2.057,2.726,2.1C210.606,129.4,212.357,129.364,214.107,129.364Z" transform="translate(-102.474 -91.142)" fill="#333"/>
    </g>
  </g>
</svg>
